<?xml version="1.0" standalone="no"?>
<!DOCTYPE svg PUBLIC "-//W3C//DTD SVG 20010904//EN"
 "http://www.w3.org/TR/2001/REC-SVG-20010904/DTD/svg10.dtd">
<svg version="1.0" xmlns="http://www.w3.org/2000/svg"
 width="4500.000000pt" height="4500.000000pt" viewBox="0 0 4500.000000 4500.000000"
 preserveAspectRatio="xMidYMid meet">

<g transform="translate(0.000000,4500.000000) scale(0.100000,-0.100000)"
fill="#000000" stroke="none">
<path d="M19400 40603 c-118 -69 -255 -149 -305 -177 l-90 -52 -3 -6422 c-1
-3532 1 -6422 5 -6422 5 0 61 19 126 42 l119 43 80 108 c80 109 80 109 117
104 20 -3 65 -9 100 -13 63 -7 70 -11 232 -127 l167 -120 36 -100 36 -99 -29
-37 c-16 -20 -41 -47 -55 -60 -14 -14 -26 -28 -26 -31 0 -7 121 -30 154 -30 8
0 298 298 644 662 346 365 646 679 666 697 l36 35 0 -872 0 -872 125 -188 125
-187 0 -382 c0 -211 -2 -383 -5 -383 -2 0 -437 250 -967 556 -529 306 -967
558 -974 561 -6 2 -36 -55 -69 -133 -54 -126 -73 -157 -257 -413 -217 -302
-197 -284 -321 -296 l-67 -7 2 -541 3 -541 8935 -5158 c4914 -2837 9433 -5445
10041 -5796 l1107 -639 308 177 309 178 3 7731 2 7731 -42 26 c-41 24 -217
126 -748 432 -129 74 -318 183 -420 242 -434 250 -2432 1404 -2840 1640 -245
142 -782 452 -1195 690 -780 450 -887 512 -1195 690 -102 59 -277 160 -390
225 -246 141 -327 189 -615 355 -197 114 -1585 915 -2005 1158 -91 52 -365
211 -610 352 -245 141 -503 291 -575 332 -219 126 -2520 1454 -2690 1553 -88
51 -245 142 -350 202 -104 61 -905 523 -1780 1028 -874 505 -1689 975 -1810
1045 -121 70 -278 161 -350 202 -354 204 -1987 1147 -2269 1310 -104 60 -194
111 -200 113 -6 2 -108 -53 -226 -122z m1405 -1815 c1002 -578 3110 -1795
5025 -2901 822 -475 1720 -993 2455 -1417 264 -152 743 -429 1065 -615 322
-186 1154 -666 1850 -1068 696 -401 1423 -821 1615 -932 500 -289 2041 -1179
3465 -2000 355 -205 861 -497 1125 -650 264 -152 645 -372 847 -489 l368 -211
0 -6293 0 -6294 -32 20 c-18 11 -208 121 -423 244 -214 124 -696 402 -1070
618 -1767 1021 -2326 1343 -2770 1600 -264 153 -903 522 -1420 820 -517 299
-1082 625 -1255 725 -173 100 -592 342 -930 537 -338 196 -1342 775 -2230
1288 -888 513 -1892 1093 -2230 1288 -338 195 -677 391 -752 435 l-138 79 0
1216 0 1216 34 36 33 35 -66 948 -65 948 22 347 c34 518 53 785 59 802 3 8 38
-104 78 -250 241 -876 224 -822 263 -870 21 -24 112 -136 203 -248 l167 -204
713 -382 c393 -210 792 -423 887 -474 l173 -92 55 47 c30 26 54 50 54 53 0 4
-27 19 -59 34 l-59 29 -7 92 -7 92 85 169 85 169 135 67 135 67 179 -99 178
-99 159 -21 c88 -11 161 -18 163 -16 2 2 -31 23 -74 47 l-78 44 -3 214 c-1
121 1 211 6 209 5 -1 138 -77 296 -168 l286 -165 0 -160 0 -161 28 -17 c63
-39 71 -50 87 -129 15 -75 21 -85 213 -364 l197 -288 3575 -2063 c1966 -1136
3583 -2069 3593 -2074 16 -9 17 106 17 2364 l0 2373 -1817 1050 c-1000 577
-1896 1094 -1993 1150 -96 55 -656 379 -1245 719 -588 340 -1448 836 -1910
1103 -462 267 -1085 627 -1385 800 -299 173 -550 317 -557 319 -10 4 -13 -431
-15 -2222 l-3 -2227 -281 214 c-155 117 -467 354 -695 527 -228 172 -416 315
-418 317 -14 12 -452 1754 -556 2206 -69 304 -129 562 -134 573 -5 11 -79 118
-166 238 -105 146 -170 226 -194 241 -20 12 -126 71 -236 131 -122 65 -403
238 -717 440 -462 297 -517 330 -521 311 -3 -11 -34 -147 -68 -301 l-63 -280
-184 -285 c-102 -157 -188 -289 -192 -293 -4 -5 -36 28 -71 74 l-63 82 -28
-34 c-84 -100 -93 -122 -211 -514 l-115 -380 -66 -515 -66 -515 0 -1293 c0
-1227 -1 -1293 -17 -1288 -10 3 -148 42 -308 87 l-290 82 -87 65 -88 64 0
1262 0 1261 39 535 40 535 101 385 c119 457 122 466 162 552 l31 67 -38 43
c-21 24 -56 62 -77 86 l-39 43 -135 -105 c-74 -58 -134 -104 -134 -102 0 2 33
81 74 175 l74 170 -104 83 c-65 53 -104 90 -104 103 -1 11 -11 115 -24 230
-18 169 -25 210 -36 208 -8 -1 -97 -11 -197 -24 l-182 -22 -245 -246 -245
-246 -246 -1374 -247 -1374 -555 -701 c-306 -386 -562 -708 -570 -716 -11 -12
-13 894 -13 5549 0 4493 2 5562 13 5558 7 -2 507 -290 1112 -639z m10665
-10795 l290 -167 0 -1124 c0 -633 -4 -1122 -9 -1120 -4 2 -137 77 -295 168
l-286 165 0 1123 c0 617 2 1122 5 1122 3 0 136 -75 295 -167z m-784 -165 l284
-163 0 -817 0 -817 -182 106 c-101 58 -232 134 -293 169 l-110 63 3 810 c1
446 5 811 9 811 3 0 134 -73 289 -162z m-788 -167 l282 -163 0 -505 0 -505
-32 19 c-18 10 -149 86 -290 167 l-258 149 0 504 c0 277 3 502 8 500 4 -2 134
-77 290 -166z m6340 -1081 l283 -163 34 -59 c29 -49 35 -69 35 -118 0 -56 -1
-59 -35 -80 l-35 -21 -315 181 -315 182 -35 63 c-28 51 -35 74 -35 119 0 54 1
56 38 75 36 19 38 19 68 2 16 -10 157 -91 312 -181z m-69 -414 c146 -84 285
-164 309 -177 63 -35 112 -126 112 -207 0 -59 0 -59 -38 -76 l-38 -17 -310
178 -309 179 -37 60 c-31 50 -37 68 -37 117 -1 54 1 58 32 77 17 11 36 20 41
20 5 0 129 -69 275 -154z m-12492 -1288 c40 -199 72 -363 70 -364 -7 -7 -248
140 -244 150 2 6 24 138 48 293 24 156 46 283 49 283 3 0 38 -163 77 -362z
m12657 -227 l256 -444 -2 -429 -3 -430 -220 -127 c-121 -70 -238 -137 -261
-150 l-41 -23 -184 107 c-101 59 -187 110 -191 114 -4 3 -4 235 1 514 l9 507
177 402 c203 460 185 422 195 411 4 -4 123 -208 264 -452z"/>
<path d="M23112 35326 l-244 -51 -144 -179 -144 -178 0 -152 0 -151 79 -33 78
-33 214 41 c118 23 307 66 420 96 l206 54 74 -31 c41 -17 78 -35 83 -39 4 -5
16 -48 26 -97 l18 -88 -96 -135 c-53 -74 -104 -146 -114 -160 -12 -17 -24 -70
-37 -160 -18 -134 -18 -137 2 -362 l22 -228 43 0 c32 0 67 12 132 45 l88 46
18 114 17 114 99 40 c54 23 103 41 109 41 5 0 37 -19 71 -41 l61 -41 -7 -77
c-4 -42 -9 -103 -13 -136 -3 -33 -3 -58 -1 -55 3 3 44 76 92 162 l87 156 38
246 39 246 -55 257 -55 257 -172 187 -171 188 -291 96 c-160 52 -299 95 -310
94 -10 0 -129 -24 -262 -53z"/>
<path d="M36750 28177 c-52 -27 -112 -61 -132 -74 l-38 -23 0 -117 0 -117 75
-132 75 -132 106 -62 107 -62 36 20 c20 11 79 45 131 74 l95 54 3 122 3 122
-73 126 -73 126 -81 48 c-149 88 -126 85 -234 27z"/>
<path d="M37820 28007 l-125 -73 -3 -467 c-1 -257 0 -467 3 -467 3 0 61 32
130 71 l125 71 0 469 c0 258 -1 469 -2 469 -2 0 -59 -33 -128 -73z"/>
<path d="M13265 30636 l-70 -43 -3 -2999 -2 -3000 60 -34 60 -34 0 -372 c0
-364 0 -373 20 -379 40 -13 50 -33 50 -108 l0 -72 53 -30 52 -31 5 -149 5
-148 75 -45 c242 -144 1217 -705 1225 -705 19 -1 1596 916 1588 923 -4 4 -403
235 -886 513 -783 452 -881 506 -900 495 -12 -6 -196 -112 -410 -235 l-387
-223 -80 46 c-55 31 -86 43 -100 39 -20 -6 -20 -3 -20 234 0 270 -6 248 83
296 l37 20 -2 2999 -3 3000 -75 43 -75 43 -115 -1 -115 -1 -70 -42z m1620
-6552 c52 -34 13 -94 -62 -94 -38 0 -93 35 -93 60 0 43 106 66 155 34z"/>
<path d="M19062 23308 l-332 -191 0 -73 c0 -41 -2 -74 -4 -74 -3 0 -31 16 -64
35 l-59 36 -487 -281 c-267 -154 -497 -286 -511 -292 -23 -10 -25 -16 -25 -80
l0 -69 -59 33 -58 32 -209 -120 c-115 -66 -345 -199 -511 -295 l-303 -174 0
-62 c0 -35 -2 -63 -5 -63 -3 0 -29 13 -58 30 l-53 29 -194 -113 c-509 -297
-803 -466 -811 -466 -5 0 -9 -30 -9 -66 l0 -65 -54 30 -54 31 -328 -191 c-181
-105 -409 -236 -506 -292 l-178 -102 0 -92 c0 -51 -3 -93 -7 -93 -3 0 -41 20
-84 45 l-78 45 -313 -182 c-565 -327 -690 -398 -699 -398 -6 0 -8 -46 -7 -107
l3 -106 500 -289 c275 -158 510 -296 522 -306 19 -14 26 -39 44 -154 l22 -137
41 24 c190 111 179 105 201 91 11 -7 903 -522 1983 -1146 l1962 -1132 0 -812
0 -811 442 -255 c242 -140 449 -259 459 -264 14 -7 89 32 333 173 173 99 317
181 320 181 3 0 6 -165 6 -368 l0 -367 455 -263 c409 -236 458 -261 478 -251
53 28 873 502 881 509 4 5 8 135 7 289 -1 155 1 281 4 281 3 0 195 -109 426
-242 l419 -243 0 -1332 0 -1332 23 -12 c12 -6 135 -77 273 -156 l251 -145 12
-181 c7 -100 14 -193 17 -207 12 -63 177 -95 264 -50 21 11 41 23 43 27 8 13
15 74 23 193 3 63 8 122 10 130 1 8 3 31 3 52 l1 36 533 308 c292 169 567 328
610 352 l79 45 51 -26 c29 -14 122 -67 206 -116 85 -49 157 -88 160 -87 4 2
199 115 434 251 236 136 437 249 447 252 11 3 165 -80 411 -222 217 -125 404
-232 416 -238 17 -7 31 -4 67 16 l45 25 3 -54 3 -55 1515 -875 1515 -876 30
17 c17 9 246 140 510 293 l480 277 3 88 c1 48 6 87 9 87 4 0 38 -18 75 -41 38
-22 73 -39 78 -37 4 2 236 134 514 293 l505 290 1 58 0 58 48 -27 48 -27 512
294 512 294 0 63 c0 34 3 62 6 62 4 0 30 -13 58 -29 l51 -29 505 293 505 293
3 66 c2 36 6 66 9 66 3 0 30 -14 60 -31 l54 -31 132 76 c73 42 301 174 507
294 l375 218 3 72 c2 40 5 72 8 72 3 0 33 -15 67 -34 l62 -34 330 192 330 191
3 101 3 102 -512 295 -512 295 -56 -34 -56 -34 -5 70 -5 71 -509 294 -508 295
-57 -34 -56 -35 -3 68 -3 67 -509 293 -510 293 -54 -31 c-29 -17 -56 -31 -60
-31 -3 0 -6 30 -6 68 l0 67 -243 139 c-133 77 -362 209 -509 293 l-267 154
-54 -31 c-29 -16 -57 -30 -60 -30 -4 0 -7 30 -7 68 l-1 67 -507 291 -506 292
-51 -29 c-29 -16 -55 -29 -58 -29 -4 0 -7 28 -7 63 l0 62 -143 81 c-78 45
-297 172 -487 281 -190 110 -355 205 -367 212 -19 10 -29 7 -70 -18 l-48 -30
-3 62 -3 62 -506 290 c-278 160 -509 291 -513 293 -4 2 -31 -11 -59 -27 l-51
-30 0 62 0 62 -513 294 -512 294 -47 -26 c-27 -15 -50 -27 -53 -27 -3 0 -5 26
-5 58 l0 59 -467 269 c-257 148 -488 281 -513 296 l-46 26 -55 -34 c-30 -18
-57 -34 -61 -34 -4 0 -8 32 -10 71 l-3 71 -500 289 c-275 159 -506 289 -513
289 -8 0 -41 -16 -73 -35 -33 -19 -62 -35 -65 -35 -2 0 -4 38 -4 85 0 48 -4
85 -10 85 -5 0 -47 22 -92 49 -46 26 -204 118 -353 203 -148 86 -337 194 -419
242 -82 47 -151 86 -152 86 -2 0 -26 -13 -52 -30 -27 -16 -52 -30 -56 -30 -3
0 -6 29 -6 64 l0 63 -507 293 -508 292 -48 -26 c-26 -14 -49 -26 -52 -26 -2 0
-5 27 -7 60 l-3 60 -510 293 -510 294 -48 -29 c-26 -15 -50 -28 -52 -28 -2 0
-5 27 -7 61 l-3 60 -509 293 -509 294 -49 -29 c-27 -16 -51 -29 -53 -29 -2 0
-5 27 -7 61 l-3 60 -235 136 c-198 114 -763 439 -780 449 -3 1 -155 -83 -338
-188z m589 -928 c26 -14 24 -25 -6 -38 -24 -11 -25 -10 -25 18 0 33 3 35 31
20z m209 -30 c0 -34 -6 -36 -35 -14 -20 15 -20 15 -1 30 29 21 36 18 36 -16z
m940 -641 c0 -8 -32 -29 -44 -29 -3 0 -6 13 -6 30 0 28 1 29 25 18 14 -6 25
-15 25 -19z m180 -9 c0 -28 -1 -29 -26 -18 l-25 12 23 18 c29 22 28 23 28 -12z
m-1479 -498 c32 -170 33 -174 15 -207 -18 -33 -18 -33 18 -135 20 -55 36 -105
36 -110 0 -4 -20 -21 -44 -36 -37 -24 -45 -34 -55 -78 -6 -28 -30 -122 -53
-209 l-41 -158 -65 3 -66 3 -13 50 c-8 31 -13 113 -13 213 l0 164 55 167 c45
136 55 180 55 234 l0 67 65 83 c45 57 65 91 66 112 1 40 2 36 40 -163z m2424
-142 c5 -8 -24 -30 -39 -30 -3 0 -6 14 -6 30 0 27 2 30 19 20 11 -5 23 -14 26
-20z m195 -16 l0 -35 -30 18 -30 18 22 17 c33 25 38 23 38 -18z m-2280 -4 c0
-30 0 -30 -26 -14 l-26 17 24 13 c12 7 24 13 26 14 1 0 2 -14 2 -30z m378
-315 c1 -1 -9 -10 -23 -19 -25 -16 -25 -16 -25 14 0 29 2 30 23 19 12 -6 23
-13 25 -14z m-4968 -368 c80 -46 222 -127 315 -182 165 -95 659 -380 1075
-620 113 -65 210 -118 215 -118 6 0 105 68 222 151 117 83 230 163 251 177 44
29 53 46 72 125 7 30 28 107 47 170 l35 115 105 85 c58 47 108 84 112 83 3 -1
50 -13 103 -27 77 -20 121 -26 208 -26 l109 0 16 -31 c12 -23 19 -28 29 -20
10 9 19 3 37 -23 14 -22 39 -41 64 -50 22 -8 110 -40 195 -71 l155 -57 105 7
c58 3 120 9 138 12 l32 5 0 -79 0 -79 66 -50 c37 -27 110 -78 163 -114 54 -36
120 -82 148 -102 43 -33 58 -38 104 -38 53 -1 56 -2 164 -92 61 -50 191 -157
290 -237 99 -81 196 -162 215 -180 19 -18 46 -40 60 -49 14 -9 46 -34 72 -55
26 -22 51 -37 56 -36 5 2 57 62 116 132 82 99 106 134 106 158 0 26 3 29 23
24 24 -6 60 29 141 139 16 21 103 127 193 235 91 108 169 206 174 219 5 13 9
42 9 65 0 38 6 47 93 136 92 96 128 136 179 199 l26 33 22 -31 c21 -29 21 -32
6 -77 -9 -26 -16 -47 -16 -48 0 -2 33 4 73 12 43 9 89 27 115 44 84 56 100 62
168 54 64 -7 137 -46 151 -81 3 -8 -2 -43 -11 -77 -10 -34 -24 -89 -32 -123
-14 -57 -21 -66 -132 -177 l-118 -118 -165 -24 c-90 -14 -166 -25 -168 -25 -2
0 -1 -17 2 -37 6 -33 -3 -52 -101 -212 -59 -97 -113 -184 -121 -193 -8 -9 -30
-45 -49 -80 -19 -35 -91 -155 -160 -268 -69 -113 -149 -244 -179 -292 -29 -48
-53 -91 -53 -96 0 -5 10 -13 23 -19 19 -8 71 19 382 199 198 115 375 216 392
224 46 20 1126 643 1140 657 6 7 17 41 24 77 21 115 29 140 44 140 18 0 18 -4
0 -115 -14 -87 -10 -255 11 -472 l5 -62 139 -85 139 -85 158 -10 c254 -17 225
-25 319 87 56 67 107 144 163 248 75 137 86 152 124 170 l41 19 27 105 c14 58
27 111 30 118 3 9 24 0 67 -28 34 -22 92 -56 129 -74 64 -33 146 -79 771 -439
144 -84 294 -170 333 -192 39 -22 283 -161 542 -308 260 -148 499 -286 532
-307 33 -21 80 -49 105 -61 72 -36 1024 -581 1030 -589 3 -4 46 -29 95 -55
135 -72 994 -563 1040 -595 22 -15 70 -43 105 -61 83 -41 1020 -577 1040 -594
8 -7 42 -27 75 -44 33 -17 284 -158 557 -314 l497 -282 1 -81 c0 -54 -4 -85
-12 -91 -7 -6 -121 -72 -253 -148 -132 -76 -665 -383 -1185 -683 -520 -299
-1242 -716 -1605 -925 -363 -209 -799 -460 -968 -558 -256 -148 -317 -179
-360 -184 l-52 -7 3 50 4 49 159 74 159 74 67 105 66 104 -47 143 c-26 78 -51
145 -56 148 -4 3 10 -50 32 -118 l41 -122 -64 -102 -63 -102 -139 -66 c-77
-36 -141 -64 -144 -62 -3 4 10 120 96 817 16 129 31 262 35 295 3 33 11 105
17 159 l12 100 -26 20 c-14 12 -59 49 -99 83 l-75 62 -79 -56 c-1010 -717
-2197 -1553 -2203 -1553 -7 0 -179 95 -188 103 0 1 -21 72 -45 159 l-45 156
798 564 c439 309 798 566 799 569 0 4 -71 48 -157 98 l-157 91 -738 -285
c-405 -157 -742 -285 -747 -285 -5 0 -12 8 -15 18 -3 9 -55 197 -116 417 -61
220 -113 406 -115 413 -3 9 -47 -19 -127 -81 -68 -51 -169 -128 -224 -171
l-102 -78 -506 293 -506 292 0 299 0 299 43 -25 c645 -375 1293 -744 1295
-738 1 4 -20 160 -48 347 -27 186 -50 343 -50 348 0 17 -28 -1 -168 -107
l-139 -104 -39 22 c-21 12 -113 65 -204 118 -91 52 -604 348 -1140 657 -536
310 -991 572 -1010 583 -178 104 -638 369 -940 543 -144 83 -1594 920 -2060
1189 -173 100 -786 454 -1361 786 l-1046 604 146 112 c80 62 148 113 151 113
3 1 70 -36 150 -82z m7809 54 c11 -7 7 -13 -18 -25 l-31 -17 0 36 c0 37 2 38
49 6z m191 -16 l0 -36 -32 17 -32 17 23 18 c33 27 41 24 41 -16z m-2280 -5 c0
-28 -1 -29 -26 -18 l-26 12 22 18 c29 24 30 23 30 -12z m-6467 -262 c155 -89
4035 -2328 4312 -2489 232 -134 258 -149 254 -153 -21 -16 -505 -289 -513
-289 -6 0 -96 49 -201 110 -546 315 -792 458 -910 525 -71 41 -206 119 -300
173 -93 54 -253 146 -355 205 -102 59 -246 142 -320 185 -386 224 -519 300
-670 387 -91 52 -527 304 -970 560 -443 255 -831 479 -863 497 -49 28 -57 36
-45 47 34 34 415 323 426 323 7 1 77 -36 155 -81z m4754 -85 c-3 -2 -15 1 -28
7 l-22 13 24 13 c22 11 24 11 27 -8 2 -11 1 -22 -1 -25z m113 -143 c0 -4 -11
-12 -25 -18 -24 -11 -25 -10 -25 18 0 28 1 29 25 18 14 -6 25 -14 25 -18z
m-2084 -18 c-4 -3 -12 0 -19 7 -9 9 -9 14 3 21 11 7 16 5 18 -6 2 -9 1 -18 -2
-22z m7124 -143 l0 -50 -40 22 c-22 13 -40 26 -40 31 0 6 64 45 78 48 1 0 2
-23 2 -51z m-217 16 c20 -10 37 -22 37 -25 0 -7 -73 -50 -84 -50 -3 0 -6 23
-6 51 0 28 3 49 8 47 4 -2 24 -12 45 -23z m-2097 -42 c-2 -3 -14 2 -26 10
l-21 15 23 16 c22 16 23 16 26 -10 2 -14 1 -28 -2 -31z m-1706 -298 c0 -27 -6
-30 -30 -15 -13 8 -12 11 5 24 26 20 25 20 25 -9z m4984 -343 c3 -5 -10 -16
-29 -25 l-35 -17 0 40 0 41 29 -16 c17 -8 32 -19 35 -23z m182 -39 c-5 -6 -66
28 -66 37 0 4 15 13 33 22 l32 15 3 -34 c2 -19 1 -37 -2 -40z m952 -617 c-1
-1 -15 -10 -30 -19 l-28 -17 0 35 0 36 31 -16 c17 -9 29 -18 27 -19z m182 -11
l0 -34 -30 17 -30 17 23 17 c31 25 37 22 37 -17z m937 -633 c9 -6 4 -13 -17
-26 l-30 -17 0 36 c0 37 3 38 47 7z m193 -17 l0 -36 -31 17 -32 16 29 19 c16
10 30 19 32 19 1 0 2 -16 2 -35z m948 -641 c2 -1 -10 -10 -27 -19 l-31 -16 0
36 0 35 28 -17 c15 -9 29 -18 30 -19z m182 -14 c0 -35 -2 -36 -36 -13 l-26 16
24 13 c34 19 38 17 38 -16z m-8552 -375 c122 -70 222 -131 222 -134 0 -3 -49
-34 -108 -67 -59 -34 -173 -100 -254 -147 l-148 -86 0 300 0 301 33 -19 c17
-11 132 -77 255 -148z m-1309 -206 c66 -38 71 -43 71 -75 0 -19 -3 -34 -7 -34
-4 0 -40 19 -80 42 -68 38 -73 44 -73 75 0 18 4 33 9 33 5 0 41 -18 80 -41z
m10787 -43 c19 -15 19 -15 -1 -30 -29 -22 -35 -20 -35 14 0 34 7 37 36 16z
m192 -41 c-3 -14 -6 -14 -27 1 l-24 17 24 13 c20 11 25 10 27 -2 2 -8 2 -21 0
-29z m-11347 -164 c54 -27 78 -127 38 -155 -19 -13 -26 -13 -49 -1 -34 18 -70
77 -70 114 0 25 34 65 50 58 3 -2 17 -9 31 -16z m12288 -450 l24 -19 -31 -16
-32 -17 0 36 c0 40 5 42 39 16z m201 -21 l0 -39 -30 17 c-16 9 -30 19 -30 22
0 4 45 35 58 39 1 1 2 -17 2 -39z m-10490 -256 c0 -19 -4 -34 -9 -34 -4 0 -40
19 -80 41 -68 40 -71 43 -71 80 l0 38 80 -46 c75 -43 80 -47 80 -79z m-445
-170 c59 -39 80 -147 30 -160 -13 -3 -33 -1 -45 6 -52 28 -79 128 -42 156 22
17 28 17 57 -2z m-1561 -76 c58 -26 88 -135 45 -158 -32 -18 -76 5 -100 51
-25 50 -24 84 3 103 27 19 21 19 52 4z m13435 -136 l22 -17 -30 -18 -31 -18 0
35 c0 40 8 44 39 18z m198 -48 c-6 -7 -57 18 -57 27 0 5 12 15 28 23 26 14 27
14 30 -16 2 -16 1 -32 -1 -34z m-2277 26 c0 -35 -2 -36 -36 -13 l-26 16 24 13
c34 19 38 17 38 -16z m359 -336 c-35 -19 -39 -17 -39 16 l0 31 32 -17 32 -16
-25 -14z m2854 -293 c40 -20 38 -23 -35 -59 -5 -2 -8 15 -8 38 0 23 3 40 8 38
4 -2 19 -10 35 -17z m207 -26 c0 -40 -2 -41 -41 -18 l-28 17 27 17 c38 25 42
23 42 -16z m-2290 0 c0 -28 -3 -30 -32 -14 -21 11 -21 12 -3 25 27 20 35 17
35 -11z m-10928 -85 c55 -26 80 -137 36 -161 -43 -23 -108 45 -108 114 0 49
28 67 72 47z m9218 -241 l0 -30 -30 18 -30 17 23 13 c33 18 37 16 37 -18z
m2074 16 c21 -16 21 -17 -11 -34 -21 -11 -23 -10 -23 19 0 33 6 36 34 15z
m-1989 -167 l26 -12 -23 -13 c-33 -18 -38 -16 -38 12 0 29 0 29 35 13z m2775
-184 l0 -35 -31 18 -30 18 22 17 c31 26 39 22 39 -18z m2280 0 c0 -20 -3 -34
-7 -32 -5 2 -20 10 -36 18 l-27 13 27 19 c39 25 43 23 43 -18z m-6745 -150
c13 -5 14 -8 3 -15 -19 -13 -28 -11 -28 6 0 17 2 18 25 9z m2743 -184 c-3 -20
-3 -20 -32 -1 l-29 19 29 15 c32 17 39 9 32 -33z m2102 10 c0 -3 -13 -14 -30
-23 l-30 -18 0 40 0 40 30 -17 c16 -9 30 -19 30 -22z m-4093 -166 c-2 -2 -12
-1 -22 2 -17 7 -17 8 1 21 17 12 19 12 22 -2 2 -9 2 -19 -1 -21z m2082 -15
c-34 -26 -39 -24 -39 16 l0 36 32 -17 31 -16 -24 -19z m-3979 -325 c-23 -13
-44 -24 -46 -24 -2 0 -4 22 -4 49 l0 50 46 -26 45 -26 -41 -23z m210 -4 l0
-50 -40 20 c-22 11 -40 24 -40 28 0 5 66 50 78 52 1 0 2 -23 2 -50z m2060 36
c0 -3 -4 -8 -10 -11 -5 -3 -10 -1 -10 4 0 6 5 11 10 11 6 0 10 -2 10 -4z
m2770 -176 l0 -41 -30 16 c-16 9 -30 20 -30 25 0 7 44 37 58 40 1 0 2 -18 2
-40z m-1990 -160 c0 -28 -1 -29 -25 -18 -14 6 -25 14 -25 18 0 5 32 25 48 29
1 1 2 -12 2 -29z m-1932 -332 c-46 -24 -48 -23 -48 23 l0 40 40 -22 41 -23
-33 -18z m209 -55 c-7 -6 -67 26 -67 35 0 5 15 15 33 24 l32 15 3 -34 c2 -19
1 -37 -1 -40z"/>
<path d="M19400 18713 c-8 -16 -15 -41 -17 -57 -2 -16 -12 -83 -23 -149 -12
-65 -19 -121 -17 -123 2 -2 96 9 208 25 112 16 234 32 271 36 140 14 146 7
-137 155 -142 74 -261 136 -265 138 -4 1 -13 -10 -20 -25z m140 -118 c0 -9 -6
-12 -15 -9 -8 4 -12 10 -9 15 8 14 24 10 24 -6z"/>
<path d="M21347 18500 l-145 -210 85 -222 c83 -219 90 -235 96 -227 2 2 18
105 36 229 18 124 35 237 38 251 3 18 59 72 199 189 107 90 193 165 191 166
-2 2 -323 34 -345 34 -6 0 -76 -95 -155 -210z"/>
<path d="M23363 17832 l-132 -47 -40 -85 c-22 -47 -63 -134 -91 -193 l-51
-108 140 -272 139 -272 186 -225 c250 -303 577 -698 706 -851 l105 -126 333
-102 c184 -57 335 -101 337 -99 30 32 135 164 135 170 0 5 -44 57 -98 116 -60
65 -148 181 -227 297 -113 167 -388 564 -683 985 -84 120 -107 163 -207 390
-62 140 -119 268 -126 284 -16 34 -241 186 -274 185 -11 0 -79 -21 -152 -47z"/>
<path d="M20472 17357 c-8 -9 37 -40 196 -132 114 -65 314 -181 446 -257 131
-76 240 -138 243 -138 2 0 3 12 1 27 -3 30 35 6 -564 351 -155 89 -288 162
-296 162 -9 0 -20 -6 -26 -13z"/>
<path d="M6350 19501 l0 -70 65 -38 65 -37 0 -77 0 -77 58 -34 57 -34 3 -86 3
-87 54 -30 54 -31 3 -76 3 -77 210 -121 c116 -67 227 -133 248 -146 l39 -23
-36 -20 -36 -21 0 -155 0 -156 188 -107 187 -108 265 0 265 0 187 108 187 107
1 155 0 155 -36 21 -37 21 39 23 c22 13 134 79 249 146 l210 122 3 75 3 76 54
31 54 31 3 87 3 86 58 34 57 34 0 77 0 77 65 37 65 38 0 70 c0 69 0 70 -22 58
-13 -7 -108 -61 -213 -122 -104 -60 -272 -156 -371 -213 l-181 -104 -642 0
c-576 0 -645 2 -674 16 -28 15 -276 158 -552 319 -49 28 -116 67 -147 84 l-58
32 0 -70z"/>
<path d="M7050 18020 c0 -56 2 -60 29 -75 18 -9 32 -25 35 -42 5 -26 47 -355
61 -483 14 -130 36 -307 40 -325 3 -15 53 -49 164 -113 l160 -92 242 0 242 0
159 92 c111 64 160 97 163 112 2 12 12 84 21 161 30 261 74 620 80 648 3 17
17 33 35 42 27 15 29 19 29 75 0 33 -3 60 -6 60 -4 0 -100 -54 -215 -120
l-208 -120 -302 0 -302 0 -208 120 c-114 66 -210 120 -213 120 -3 0 -6 -27 -6
-60z"/>
<path d="M12600 17051 c0 -5 72 -155 160 -332 88 -177 160 -327 160 -334 0 -6
-16 -19 -35 -28 -19 -9 -35 -21 -35 -26 0 -5 51 -38 113 -73 61 -36 261 -151
442 -255 182 -105 434 -250 560 -323 127 -73 236 -137 243 -143 9 -7 0 -18
-40 -42 -51 -30 -53 -33 -56 -78 -2 -26 0 -47 3 -47 17 0 65 32 65 44 0 8 24
27 53 43 61 35 90 46 82 34 -3 -5 7 -16 22 -24 16 -7 46 -24 67 -38 22 -13 37
-18 33 -12 -8 13 18 12 30 -2 4 -4 2 -5 -4 -1 -7 4 -13 4 -13 -1 0 -13 84 -60
98 -55 7 2 9 9 6 14 -4 7 -2 8 5 4 9 -6 9 -11 -1 -24 -11 -13 -10 -15 5 -9 11
4 17 1 17 -9 0 -8 5 -12 10 -9 6 3 10 2 10 -3 0 -5 12 -14 27 -21 33 -15 51 0
27 23 -9 9 -14 20 -10 23 3 3 0 13 -7 22 -11 14 -10 15 7 1 18 -14 19 -13 12
5 -6 16 -5 17 5 8 9 -9 9 -16 1 -25 -11 -14 8 -51 24 -48 5 1 10 -4 12 -12 3
-11 2 -11 -6 0 -7 10 -11 10 -21 -2 -8 -10 -9 -16 -1 -21 5 -3 10 -3 10 0 0 3
10 -3 22 -14 11 -11 25 -18 30 -15 4 3 8 1 8 -4 0 -6 7 -13 16 -16 8 -3 13 -2
10 3 -3 4 7 7 22 6 15 -1 36 5 47 14 12 9 15 10 8 2 -10 -11 -9 -17 4 -27 15
-10 15 -14 4 -28 -8 -9 -12 -18 -10 -20 2 -1 29 -17 60 -34 42 -24 58 -29 67
-20 7 7 12 8 12 4 0 -5 7 -2 17 5 15 13 15 12 2 -8 -10 -16 -16 -19 -22 -10
-6 9 -8 8 -5 -2 2 -7 22 -23 43 -35 22 -11 61 -34 88 -49 26 -15 52 -25 57
-22 6 4 9 1 8 -6 -2 -7 2 -13 7 -14 6 0 24 -10 41 -22 17 -12 34 -20 38 -16 3
3 6 2 6 -3 0 -5 14 -18 31 -28 19 -11 29 -14 24 -6 -5 8 -4 11 3 6 6 -3 13 -2
17 4 4 6 11 8 16 4 5 -3 7 -10 3 -15 -3 -5 -10 -7 -15 -4 -5 4 -9 2 -9 -3 0
-17 32 -23 49 -10 14 11 14 11 3 -4 -11 -14 -10 -18 8 -28 27 -14 52 -6 44 15
-3 8 -11 12 -18 8 -7 -4 -7 -2 1 8 10 12 10 18 0 29 -6 8 -2 6 11 -5 12 -10
21 -24 18 -31 -2 -6 1 -17 7 -23 9 -10 9 -12 -2 -9 -7 2 -15 -2 -18 -9 -2 -6
9 -14 26 -18 17 -4 31 -11 31 -16 0 -10 61 -44 73 -41 4 1 7 -3 7 -9 0 -5 5
-7 10 -4 6 3 10 2 10 -2 0 -5 14 -17 30 -27 24 -13 34 -15 45 -6 11 9 13 7 10
-7 -2 -10 -4 -20 -4 -23 -1 -3 -26 -19 -56 -35 -55 -30 -55 -30 -55 -77 0 -54
7 -58 55 -28 27 16 35 18 43 7 9 -10 0 -20 -41 -43 -47 -27 -52 -34 -55 -68
-5 -63 2 -71 42 -47 33 21 66 28 66 14 0 -5 -24 -22 -53 -38 -50 -30 -52 -33
-55 -78 -4 -54 1 -56 58 -27 21 11 41 16 44 11 7 -10 -5 -20 -61 -51 -41 -23
-43 -26 -43 -72 0 -26 3 -48 8 -48 4 0 187 103 407 229 l400 229 0 158 0 158
-105 59 c-202 116 -1286 740 -1400 807 -145 86 -1453 840 -1529 882 -71 39
-688 395 -718 414 -13 8 -23 10 -23 5z m1805 -1531 c-3 -5 -12 -10 -18 -10 -7
0 -6 4 3 10 19 12 23 12 15 0z m18 -17 c-5 -12 -3 -14 7 -8 9 5 11 4 6 -4 -4
-6 -11 -9 -16 -6 -8 5 -25 -24 -21 -38 1 -5 -3 -6 -9 -2 -8 5 -8 11 0 20 7 8
8 20 4 26 -4 7 -3 9 3 6 6 -4 13 0 17 8 3 8 8 15 10 15 3 0 2 -7 -1 -17z m59
-50 c-6 -3 -9 -10 -6 -15 4 -7 2 -8 -5 -4 -9 6 -9 11 0 22 6 8 15 12 18 8 3
-4 0 -9 -7 -11z m58 0 c0 -3 -6 -3 -12 0 -7 2 -19 -3 -26 -12 -11 -14 -12 -13
-2 6 6 14 16 20 25 17 8 -4 15 -8 15 -11z m-35 -63 c3 -6 -1 -7 -9 -4 -18 7
-21 14 -7 14 6 0 13 -4 16 -10z m111 -14 c1 -9 -5 -12 -20 -8 -18 5 -18 7 -3
10 10 2 14 8 11 15 -4 7 -3 8 1 4 5 -4 10 -14 11 -21z m79 -15 c3 -5 2 -12 -3
-15 -5 -3 -9 1 -9 9 0 17 3 19 12 6z m30 -30 c3 -5 1 -12 -5 -16 -5 -3 -10 1
-10 9 0 18 6 21 15 7z m36 -36 c11 6 11 5 2 -5 -12 -14 -33 -6 -33 13 0 8 3 7
9 -2 5 -8 14 -10 22 -6z m-37 -11 c3 -8 2 -12 -4 -9 -6 3 -10 10 -10 16 0 14
7 11 14 -7z m201 -54 c4 -6 -1 -7 -12 -4 -17 5 -17 5 0 -9 17 -14 17 -15 -7
-13 -20 1 -22 4 -15 19 11 19 25 22 34 7z m145 -100 c0 -5 -5 -10 -11 -10 -5
0 -7 5 -4 10 3 6 8 10 11 10 2 0 4 -4 4 -10z m45 -10 c3 -5 1 -10 -5 -10 -6 0
-8 -4 -5 -10 5 -8 -8 -15 -17 -8 -2 1 -13 -4 -25 -10 -12 -7 -24 -8 -27 -4 -3
5 0 9 7 9 39 1 65 22 44 35 -8 5 -7 8 5 8 9 0 20 -4 23 -10z m39 -48 c3 -5 -1
-9 -9 -9 -8 0 -12 4 -9 9 3 4 7 8 9 8 2 0 6 -4 9 -8z m46 -12 c12 -7 12 -12 2
-22 -11 -11 -13 -9 -11 8 0 4 -5 11 -13 15 -7 5 -8 9 -3 9 6 0 17 -5 25 -10z
m-81 -7 c-3 -20 2 -24 15 -14 10 9 15 8 19 -3 4 -9 1 -18 -5 -22 -7 -5 -8 -2
-3 6 6 10 4 12 -8 7 -16 -6 -41 15 -30 26 8 9 13 9 12 0z m69 -48 c-3 -3 -9 2
-12 12 -6 14 -5 15 5 6 7 -7 10 -15 7 -18z m52 9 c0 -8 -19 -13 -24 -6 -3 5 1
9 9 9 8 0 15 -2 15 -3z m6 -38 c0 -20 -3 -22 -18 -12 -10 6 -18 14 -18 19 0 4
4 6 9 2 5 -3 12 -1 16 5 9 15 11 13 11 -14z m58 -12 c3 -8 2 -12 -4 -9 -6 3
-10 10 -10 16 0 14 7 11 14 -7z m178 -59 c3 0 8 -2 10 -5 2 -3 1 -4 -1 -3 -2
2 -11 -3 -19 -10 -13 -9 -14 -9 -8 1 4 6 2 12 -3 12 -6 0 -11 5 -11 11 0 6 5
7 13 2 6 -4 15 -8 19 -8z m80 -62 c-10 -4 -10 -8 -1 -19 10 -12 9 -13 -5 -8
-9 3 -16 9 -16 13 0 12 23 31 29 24 3 -3 0 -8 -7 -10z m-12 -54 c0 -5 5 -7 12
-3 7 4 8 3 4 -5 -6 -9 -11 -9 -22 0 -17 14 -18 19 -4 19 6 0 10 -5 10 -11z
m67 -15 c-3 -3 -12 -4 -19 -1 -8 3 -5 6 6 6 11 1 17 -2 13 -5z m88 -13 c-3 -5
-1 -12 5 -16 6 -4 8 -11 4 -16 -9 -14 -23 -1 -19 19 5 23 4 22 11 22 3 0 3 -4
-1 -9z m-81 -17 c3 -8 2 -12 -4 -9 -6 3 -10 10 -10 16 0 14 7 11 14 -7z m46 2
c-7 -7 -13 -7 -20 0 -6 6 -3 10 10 10 13 0 16 -4 10 -10z"/>
<path d="M12812 16163 c3 -14 708 -432 731 -433 5 0 7 7 5 16 -3 15 -709 433
-731 434 -5 0 -7 -7 -5 -17z"/>
<path d="M12810 16023 c1 -13 95 -72 357 -223 196 -113 362 -206 370 -208 7
-2 13 3 13 11 0 8 -151 102 -362 223 -199 115 -365 211 -370 212 -4 2 -8 -5
-8 -15z"/>
<path d="M12812 15884 c2 -12 121 -86 363 -226 198 -114 363 -208 368 -208 42
0 -50 61 -353 237 -195 112 -361 207 -369 210 -9 4 -12 0 -9 -13z"/>
<path d="M12812 15749 c2 -15 98 -75 366 -231 200 -115 367 -207 370 -203 4 3
2 13 -3 21 -6 8 -173 108 -373 224 -286 164 -363 205 -360 189z"/>
<path d="M13630 15693 c0 -12 28 -34 84 -65 93 -53 96 -54 96 -33 0 12 -71 59
-157 104 -20 10 -23 9 -23 -6z"/>
<path d="M13630 15553 c0 -13 21 -31 68 -58 37 -21 77 -45 90 -53 20 -13 22
-13 22 6 0 15 -19 31 -67 58 -38 20 -78 44 -90 52 -21 13 -23 13 -23 -5z"/>
<path d="M13630 15413 c0 -13 28 -35 90 -70 76 -44 90 -49 90 -33 0 16 -24 33
-172 117 -5 2 -8 -4 -8 -14z"/>
<path d="M14143 15339 c-29 -18 -33 -26 -33 -65 0 -24 5 -44 10 -44 18 0 60
32 60 45 0 7 8 16 18 20 16 6 16 7 1 18 -9 7 -18 20 -20 29 -4 16 -7 16 -36
-3z"/>
<path d="M12671 15189 c45 -90 115 -233 155 -316 l72 -153 59 33 c96 55 328
189 331 192 1 1 -141 85 -315 186 -175 101 -333 192 -351 203 -34 19 -34 19
49 -145z"/>
<path d="M14262 15325 c3 -17 727 -439 737 -430 3 3 1 13 -4 21 -10 16 -711
424 -727 424 -5 0 -8 -7 -6 -15z"/>
<path d="M13630 15273 c0 -12 28 -33 86 -66 47 -27 88 -46 91 -43 14 14 -12
37 -84 77 -99 56 -93 54 -93 32z"/>
<path d="M14787 15213 c3 -8 12 -12 20 -9 8 3 11 1 8 -4 -3 -6 1 -10 9 -10 16
0 31 18 22 27 -3 3 -18 7 -35 8 -22 2 -28 -1 -24 -12z"/>
<path d="M14143 15200 c-29 -18 -33 -25 -33 -65 0 -25 5 -45 10 -45 18 0 60
32 60 45 0 7 8 16 18 20 16 6 16 7 1 18 -9 7 -18 20 -20 30 -4 16 -6 16 -36
-3z"/>
<path d="M14262 15184 c3 -14 709 -433 731 -434 5 0 7 7 5 16 -3 15 -709 433
-731 434 -5 0 -7 -7 -5 -16z"/>
<path d="M14138 15062 c-24 -15 -28 -23 -28 -64 0 -27 2 -48 5 -48 18 0 65 33
65 45 0 8 8 18 18 24 16 9 16 10 0 16 -10 4 -18 16 -18 26 0 23 -6 23 -42 1z"/>
<path d="M14261 15046 c4 -18 726 -442 736 -432 3 3 3 11 0 18 -4 12 -677 407
-721 424 -14 5 -17 3 -15 -10z"/>
<path d="M14260 14913 c0 -15 87 -69 363 -228 199 -114 365 -210 370 -212 4
-2 7 4 7 14 0 13 -86 67 -318 201 -174 100 -341 196 -369 213 -48 28 -53 29
-53 12z"/>
<path d="M15080 14855 c0 -13 159 -115 180 -115 6 0 10 6 10 14 0 11 -167 116
-185 116 -3 0 -5 -7 -5 -15z"/>
<path d="M15080 14713 c0 -12 29 -34 84 -65 86 -49 111 -58 104 -35 -4 11
-164 114 -180 116 -5 1 -8 -7 -8 -16z"/>
<path d="M17194 13782 c239 -479 436 -876 438 -883 3 -9 22 -2 62 20 48 28 61
32 81 23 21 -10 24 -8 27 16 2 20 16 34 63 60 56 32 62 33 85 19 14 -8 167
-96 340 -196 173 -101 319 -186 323 -191 5 -4 -17 -23 -50 -42 -48 -28 -59
-39 -61 -64 -2 -25 2 -31 27 -41 28 -10 30 -9 33 15 4 36 112 101 139 83 26
-16 29 -14 29 14 0 18 10 30 38 45 20 12 49 29 64 38 23 14 31 15 48 4 18 -11
20 -10 20 12 0 18 10 31 40 47 35 20 40 27 40 57 0 33 -1 34 -22 20 -13 -8
-44 -27 -71 -42 l-47 -28 -68 40 c-204 121 -335 191 -344 185 -7 -3 -8 -1 -4
5 3 6 -3 16 -14 22 -11 6 -20 7 -20 3 0 -4 -4 -3 -8 2 -15 22 -220 141 -234
137 -5 -1 -8 2 -8 6 0 4 29 25 65 45 52 30 69 36 84 27 29 -15 34 -13 29 14
-4 21 4 29 60 60 49 27 68 33 82 26 27 -14 30 -13 30 14 0 33 115 104 142 87
25 -16 28 -14 28 14 0 18 9 29 37 43 l36 19 -94 55 c-248 146 -1853 1070
-1865 1075 -8 3 181 -386 420 -865z m947 -655 c62 -33 213 -121 219 -127 3 -3
21 -13 40 -22 19 -10 42 -22 50 -28 20 -14 233 -137 293 -169 26 -14 47 -29
47 -34 0 -4 -4 -6 -9 -3 -5 4 -11 2 -13 -2 -1 -5 -23 -21 -47 -36 -37 -24 -48
-26 -68 -17 -14 7 -21 16 -17 23 4 7 3 8 -4 4 -14 -8 -94 33 -87 44 3 4 -1 7
-8 6 -20 -2 -466 258 -459 269 3 5 2 7 -3 3 -8 -8 -85 28 -85 40 0 4 24 22 53
39 28 17 52 32 53 32 1 1 21 -10 45 -22z"/>
<path d="M15080 14576 c0 -16 30 -38 127 -91 52 -29 77 -29 53 0 -10 12 -137
88 -172 103 -5 2 -8 -3 -8 -12z"/>
<path d="M12810 14523 c0 -15 87 -69 359 -226 197 -114 363 -207 370 -207 22
0 10 20 -26 44 -21 13 -173 102 -338 196 -165 95 -315 181 -332 192 -32 19
-33 19 -33 1z"/>
<path d="M15082 14434 c3 -15 160 -114 181 -114 4 0 7 6 7 14 0 13 -165 116
-184 116 -4 0 -6 -7 -4 -16z"/>
<path d="M12812 14379 c2 -15 98 -75 366 -231 200 -115 367 -207 370 -203 4 3
2 13 -3 21 -6 8 -173 108 -373 224 -286 164 -363 205 -360 189z"/>
<path d="M12810 14242 c0 -15 84 -68 366 -231 202 -116 369 -209 373 -206 15
15 -39 51 -364 238 -192 112 -356 206 -362 210 -9 6 -13 2 -13 -11z"/>
<path d="M14493 14042 c-100 -59 -228 -134 -283 -166 l-100 -60 0 -48 c0 -26
3 -48 6 -48 16 0 63 35 67 50 4 16 89 70 109 70 9 0 67 -33 493 -280 83 -48
227 -131 320 -185 419 -241 551 -318 559 -325 5 -5 -17 -23 -48 -40 l-56 -32
0 -49 c0 -27 3 -49 8 -49 4 0 22 9 39 20 31 18 69 18 58 -1 -3 -4 -28 -20 -55
-35 -49 -27 -50 -28 -50 -76 0 -54 7 -58 57 -27 23 15 38 18 45 11 7 -7 -8
-21 -46 -43 -55 -33 -56 -34 -56 -81 0 -27 2 -48 5 -48 3 0 24 9 47 21 66 34
70 7 4 -31 l-56 -31 0 -50 c0 -27 3 -49 6 -49 4 0 29 14 56 30 26 17 50 30 53
30 3 0 5 -20 5 -45 0 -36 4 -47 23 -57 12 -7 27 -12 32 -13 23 -2 75 -41 75
-57 0 -21 37 -48 56 -41 8 3 14 0 14 -6 0 -6 11 -18 25 -27 21 -14 28 -14 41
-3 10 8 18 9 22 2 11 -16 51 -35 62 -28 6 3 10 2 10 -4 0 -5 14 -18 30 -28 17
-9 30 -25 30 -35 0 -21 35 -42 56 -34 8 3 26 -1 39 -10 13 -9 28 -13 34 -10
12 8 71 -48 71 -66 0 -18 44 -40 65 -32 13 6 15 73 13 572 l-3 567 -90 52
c-214 125 -306 174 -315 168 -6 -3 -10 0 -10 7 0 10 -424 260 -1239 730 l-46
26 -182 -106z"/>
<path d="M12810 14103 c0 -13 96 -74 360 -225 197 -115 364 -208 369 -208 16
0 13 15 -6 32 -13 11 -445 261 -715 415 -5 2 -8 -4 -8 -14z"/>
<path d="M13630 14045 c0 -12 71 -59 158 -104 19 -10 22 -9 22 6 0 12 -28 34
-84 66 -93 52 -96 53 -96 32z"/>
<path d="M13630 13903 c0 -12 28 -33 86 -66 47 -27 88 -46 91 -43 14 14 -12
37 -84 77 -99 56 -93 54 -93 32z"/>
<path d="M13632 13764 c2 -14 155 -114 174 -114 2 0 4 8 4 18 0 11 -28 33 -81
62 -101 56 -102 56 -97 34z"/>
<path d="M14138 13692 c-24 -15 -28 -23 -28 -64 0 -27 3 -48 6 -48 15 0 64 36
64 47 0 6 8 17 18 23 16 10 16 10 0 20 -10 6 -18 18 -18 25 0 18 -7 18 -42 -3z"/>
<path d="M14260 13686 c0 -19 5 -22 375 -236 165 -95 315 -181 333 -192 31
-19 32 -19 32 0 0 14 -84 67 -362 228 -199 115 -365 211 -370 212 -4 2 -8 -3
-8 -12z"/>
<path d="M13630 13630 c0 -16 24 -33 173 -117 4 -2 7 4 7 14 0 13 -28 35 -90
70 -76 44 -90 49 -90 33z"/>
<path d="M14138 13552 c-24 -14 -28 -23 -28 -64 0 -27 3 -48 6 -48 15 0 64 36
64 47 0 6 7 16 16 21 14 8 14 10 0 21 -9 8 -16 20 -16 27 0 18 -9 17 -42 -4z"/>
<path d="M14260 13543 c0 -14 83 -67 337 -213 430 -249 403 -235 403 -213 0
13 -90 70 -318 201 -174 100 -341 196 -369 213 -48 28 -53 29 -53 12z"/>
<path d="M14138 13414 c-25 -13 -28 -20 -28 -64 l0 -50 35 17 c20 10 35 24 35
34 0 10 5 19 10 21 7 2 6 13 -2 30 -15 32 -14 32 -50 12z"/>
<path d="M14260 13403 c0 -13 88 -69 312 -198 472 -272 428 -249 428 -228 0
14 -88 69 -337 213 -431 250 -403 235 -403 213z"/>
<path d="M14262 13263 c2 -12 136 -94 363 -225 197 -115 363 -208 367 -208 4
0 8 6 8 14 0 11 -717 436 -736 436 -3 0 -4 -8 -2 -17z"/>
<path d="M15080 13213 c0 -13 27 -34 91 -72 50 -29 93 -50 96 -47 13 13 -10
36 -74 71 -37 21 -78 45 -90 53 -21 13 -23 13 -23 -5z"/>
<path d="M19393 13088 c-43 -26 -46 -67 -6 -85 37 -18 41 -16 36 10 -4 19 3
28 33 46 l38 23 -24 14 c-32 17 -38 17 -77 -8z"/>
<path d="M15082 13064 c3 -15 160 -114 181 -114 4 0 7 6 7 14 0 13 -165 116
-184 116 -4 0 -6 -7 -4 -16z"/>
<path d="M19248 13004 c-49 -30 -58 -39 -58 -64 0 -19 -7 -33 -20 -40 -18 -9
-20 -8 -20 15 0 32 -3 31 -70 -9 -44 -26 -56 -38 -58 -62 -2 -23 3 -32 25 -45
208 -120 679 -392 680 -393 1 -1 -27 -19 -62 -39 -55 -32 -65 -42 -65 -65 0
-21 8 -31 38 -44 20 -10 89 -48 152 -84 247 -143 233 -137 228 -101 -2 14 -9
21 -20 21 -10 -1 -16 2 -13 6 2 4 -70 49 -160 101 -90 52 -161 97 -157 100 4
4 33 21 64 38 55 30 59 31 83 15 14 -9 25 -14 25 -11 0 3 38 -17 85 -44 47
-27 88 -49 90 -49 3 0 5 9 5 19 0 14 -21 31 -72 60 -118 65 -117 64 -74 89 30
18 36 27 36 55 0 30 -6 38 -51 66 -28 17 -52 31 -54 31 -2 0 -44 24 -92 53
-48 28 -109 63 -135 77 -27 14 -48 28 -48 32 0 5 -5 8 -10 8 -20 0 -190 102
-184 111 3 5 -1 7 -8 4 -7 -3 -28 4 -45 15 -45 27 -44 61 2 90 27 17 35 28 35
51 0 16 -3 29 -7 28 -5 0 -34 -16 -65 -35z"/>
<path d="M15080 12930 c0 -13 27 -34 91 -70 49 -29 93 -50 96 -47 14 14 -11
35 -96 84 -77 44 -91 49 -91 33z"/>
<path d="M17512 12814 c-107 -61 -111 -56 268 -275 l325 -188 3 -36 3 -36 26
16 c20 14 31 15 49 6 22 -10 24 -8 24 14 0 19 10 30 41 45 37 19 40 24 37 58
-2 25 -10 40 -23 47 -38 19 -540 309 -545 314 -7 8 -130 71 -138 71 -4 0 -35
-16 -70 -36z"/>
<path d="M15080 12793 c0 -14 26 -34 87 -69 108 -61 103 -59 103 -40 0 16 -27
35 -132 95 -52 29 -58 31 -58 14z"/>
<path d="M19983 12550 c-25 -15 -33 -27 -33 -49 0 -18 6 -31 18 -35 9 -3 22
-8 28 -11 7 -4 14 6 17 22 3 15 8 43 12 61 7 37 2 39 -42 12z"/>
<path d="M18388 12507 c-51 -28 -58 -36 -58 -62 0 -25 6 -33 31 -42 30 -12 31
-11 26 13 -3 20 2 28 34 46 31 17 39 28 39 50 0 15 -3 28 -7 28 -5 0 -34 -15
-65 -33z"/>
<path d="M17000 12107 l0 -244 258 -149 c141 -81 272 -157 290 -167 l32 -19 0
245 0 244 -257 148 c-142 82 -273 157 -290 168 l-33 19 0 -245z"/>
<path d="M19490 12267 c-46 -28 -56 -38 -58 -65 -2 -19 -11 -36 -23 -42 -16
-9 -19 -7 -19 15 0 14 -3 25 -6 25 -4 0 -33 -15 -65 -32 -52 -29 -59 -36 -59
-64 0 -23 6 -34 26 -42 15 -7 22 -17 18 -24 -4 -7 -3 -8 4 -4 12 7 256 -127
247 -136 -3 -2 1 -5 8 -5 11 0 355 -193 385 -216 10 -8 0 -18 -44 -43 l-56
-32 -147 85 c-80 47 -166 97 -191 110 -78 44 -304 175 -329 190 l-24 15 32 20
c23 15 31 27 31 49 0 16 -4 29 -9 29 -5 0 -34 -14 -65 -32 -49 -28 -56 -36
-56 -63 0 -26 -8 -35 -61 -68 -102 -64 -107 -58 271 -276 l325 -188 3 -313 c2
-273 0 -314 -13 -324 -14 -10 -12 -14 13 -28 27 -16 29 -16 90 18 55 31 62 39
62 66 0 30 0 30 25 14 23 -15 27 -14 85 20 52 30 60 39 60 65 0 29 1 29 24 14
13 -8 31 -13 40 -9 14 6 16 48 16 450 l0 444 -52 33 c-59 37 -355 209 -424
246 -50 27 -54 37 -19 53 19 9 25 19 25 45 0 18 -3 33 -7 33 -5 0 -33 -15 -63
-33z"/>
<path d="M18040 12208 c0 -14 5 -18 16 -14 9 3 20 6 25 6 17 0 1 17 -21 23
-15 4 -20 0 -20 -15z"/>
<path d="M18075 12191 c-18 -7 -17 -10 13 -25 19 -10 40 -15 48 -12 7 3 16 1
19 -4 4 -6 0 -10 -7 -10 -7 -1 1 -7 17 -14 17 -7 34 -11 39 -8 5 3 6 0 3 -5
-7 -11 58 -56 81 -56 6 0 12 -3 12 -7 0 -3 19 -17 43 -30 38 -21 41 -21 27 -4
-8 11 -3 7 11 -8 14 -15 28 -28 32 -28 4 0 31 -16 61 -35 30 -19 61 -35 69
-35 8 0 20 -6 26 -14 7 -8 26 -18 42 -21 16 -4 27 -10 24 -14 -2 -5 8 -14 23
-20 30 -14 38 -14 34 1 -1 5 1 7 6 4 5 -3 7 -26 5 -51 l-4 -46 29 15 c26 13
31 13 51 0 20 -14 21 -14 21 14 0 23 7 32 35 45 30 14 35 22 35 52 l0 35 -64
-40 -65 -39 -48 26 c-26 14 -64 36 -83 49 -19 12 -42 24 -50 26 -8 2 -21 9
-29 16 -7 7 -20 11 -28 8 -8 -3 -11 -1 -8 4 3 6 -2 13 -12 17 -10 3 -25 12
-34 20 -9 8 -23 13 -30 11 -8 -2 -13 2 -12 9 1 6 -15 18 -36 27 -22 8 -42 20
-46 26 -3 6 -11 8 -16 5 -5 -4 -9 -1 -9 4 0 6 -7 11 -15 11 -8 0 -15 4 -15 9
0 5 -10 13 -22 17 -12 3 -28 13 -36 21 -8 8 -22 11 -30 8 -9 -3 -13 -3 -9 1 4
4 -5 15 -20 25 -20 13 -30 15 -40 7 -10 -8 -12 -7 -7 6 7 17 0 19 -31 7z m652
-385 c-3 -8 -1 -17 6 -20 7 -2 5 -5 -5 -5 -11 -1 -16 6 -15 19 1 11 5 20 10
20 5 0 7 -6 4 -14z"/>
<path d="M17761 11680 c0 -124 4 -222 9 -225 5 -3 7 -12 4 -20 -3 -7 4 -19 16
-25 13 -7 20 -8 17 -3 -4 5 0 10 7 10 9 0 12 -7 8 -15 -4 -11 -1 -14 12 -9 10
4 15 3 11 -3 -6 -10 29 -32 39 -23 3 3 0 13 -7 21 -11 13 -9 14 11 1 12 -8 18
-15 12 -17 -5 -2 -10 -9 -10 -14 0 -6 3 -9 6 -5 3 3 16 -3 27 -14 15 -13 24
-16 31 -9 8 8 6 14 -4 20 -8 5 -10 10 -4 10 6 0 17 -7 24 -15 9 -10 9 -15 1
-15 -26 0 -7 -20 46 -46 31 -16 66 -37 77 -46 10 -10 23 -15 28 -12 4 3 8 0 8
-7 0 -8 3 -9 14 0 10 9 17 7 27 -6 13 -16 12 -17 -3 -4 -10 7 -18 10 -18 5 1
-14 100 -69 117 -66 10 2 12 -1 7 -10 -4 -7 3 -4 16 7 13 11 20 15 17 8 -4 -6
-4 -13 0 -16 5 -2 2 -2 -6 0 -11 3 -10 -2 4 -17 10 -11 19 -20 21 -20 2 0 3
108 4 240 0 229 0 239 -20 250 -15 8 -19 7 -16 -2 1 -7 1 -10 -1 -5 -3 4 -9 5
-14 2 -5 -4 -6 0 -3 8 3 8 0 18 -7 23 -7 4 -10 3 -5 -4 3 -6 2 -14 -4 -17 -6
-4 -10 -3 -9 2 3 20 -2 34 -11 28 -6 -3 -13 1 -16 10 -4 10 -14 15 -25 12 -11
-3 -19 -1 -19 4 0 10 -70 59 -85 59 -5 0 -3 -5 5 -11 13 -9 13 -10 0 -6 -8 2
-15 9 -15 15 0 7 -3 11 -6 10 -3 -2 -13 5 -23 15 -10 9 -22 15 -27 12 -5 -4
-9 -2 -9 3 0 12 -66 52 -74 45 -3 -3 -1 -14 5 -24 8 -15 6 -17 -7 -12 -11 4
-15 3 -10 -5 3 -6 3 -13 -2 -16 -4 -2 -9 4 -9 15 -1 10 2 19 5 19 4 0 8 9 9
20 2 18 -3 22 -24 19 -3 0 -10 7 -15 16 -8 13 -13 14 -24 4 -12 -10 -16 -8
-20 9 -6 22 -30 36 -45 26 -5 -3 -8 0 -7 8 2 7 -5 12 -14 12 -10 -1 -15 2 -12
7 3 5 1 9 -5 9 -6 0 -9 -84 -10 -220z m218 76 c-3 -3 -11 5 -18 17 -13 21 -12
21 5 5 10 -10 16 -20 13 -22z m121 -96 c0 -5 -2 -10 -4 -10 -3 0 -8 5 -11 10
-3 6 -1 10 4 10 6 0 11 -4 11 -10z m-103 -275 c0 -8 -4 -12 -9 -9 -5 3 -6 10
-3 15 9 13 12 11 12 -6z m68 -75 c-3 -4 -14 -10 -25 -13 -16 -4 -19 -2 -11 7
11 13 43 18 36 6z m171 -116 c1 -19 -1 -32 -5 -29 -3 3 -6 22 -6 40 -1 19 1
32 4 29 3 -3 7 -21 7 -40z"/>
<path d="M18467 11584 c-10 -10 -9 -526 1 -520 5 3 9 -1 9 -9 0 -8 -2 -13 -5
-10 -3 2 -21 -5 -42 -16 l-36 -21 -329 191 c-293 169 -363 205 -328 170 5 -5
154 -93 329 -194 l319 -184 34 20 c26 16 36 17 42 8 4 -7 6 -16 3 -21 -3 -4 0
-15 5 -25 6 -10 15 -37 21 -59 12 -47 34 -72 46 -53 4 7 3 9 -4 6 -6 -5 -8 1
-5 14 6 20 6 20 19 -3 8 -13 16 -31 20 -40 8 -22 51 -38 91 -34 18 2 30 0 28
-5 -3 -4 -14 -6 -25 -4 -11 2 -20 0 -20 -5 0 -11 30 -21 42 -13 7 4 8 1 3 -7
-6 -10 -4 -12 8 -7 10 4 16 2 14 -5 -1 -6 16 -17 38 -24 22 -6 39 -17 38 -23
-3 -10 4 -13 24 -10 3 0 10 -6 15 -15 8 -15 11 -14 26 5 l18 21 1 -23 c2 -19
0 -20 -7 -9 -8 13 -10 12 -10 -2 0 -10 6 -18 13 -18 6 0 23 -9 37 -20 19 -15
28 -16 39 -7 11 9 13 9 8 0 -4 -6 4 -20 19 -32 29 -23 49 -28 38 -9 -5 7 -3 8
5 4 7 -5 10 -11 6 -14 -9 -10 97 -70 113 -64 10 3 13 1 8 -6 -13 -21 14 -13
70 20 48 29 54 36 54 66 0 20 6 35 15 38 13 5 15 50 15 321 l0 315 -57 -32
c-32 -18 -64 -39 -70 -48 -7 -9 -13 -11 -13 -5 0 6 -40 33 -90 61 -49 27 -87
45 -83 39 3 -7 -5 0 -20 16 -14 15 -32 27 -38 27 -7 0 -21 7 -31 16 -16 15
-18 15 -24 1 -3 -9 -12 -13 -20 -10 -8 3 -11 9 -8 14 3 5 11 6 17 2 7 -4 6 0
-2 10 -7 9 -20 17 -27 17 -8 0 -14 4 -14 9 0 12 -57 34 -69 26 -6 -3 -9 0 -6
7 6 15 -58 52 -87 51 -9 0 -16 4 -15 10 1 5 -13 19 -32 30 -19 12 -32 16 -28
11 3 -6 -3 -10 -16 -9 -14 1 -21 8 -19 18 1 8 -3 19 -9 23 -8 4 -9 3 -5 -5 5
-7 2 -10 -6 -9 -7 2 -12 -3 -10 -11 3 -12 0 -12 -12 -2 -16 14 -12 36 5 26 5
-4 9 -1 9 4 0 6 -6 11 -14 11 -8 0 -16 5 -18 11 -2 5 -7 7 -11 3z m115 -128
c6 4 8 2 5 -3 -4 -6 0 -13 8 -17 8 -3 14 0 12 6 -1 5 5 12 14 13 9 2 16 -3 16
-11 0 -7 -4 -11 -9 -8 -4 3 -8 1 -8 -5 0 -6 15 -18 33 -27 l32 -17 -20 24
c-11 13 -13 18 -5 12 20 -18 35 -16 20 2 -9 10 -9 15 -1 15 6 0 11 -4 11 -10
0 -5 5 -10 11 -10 5 0 7 5 3 12 -5 7 -3 8 6 3 10 -6 9 -11 -5 -21 -21 -16 -13
-49 11 -40 8 3 13 2 10 -3 -7 -10 42 -37 51 -28 3 4 1 7 -6 7 -7 0 -9 5 -6 10
3 6 1 10 -5 10 -6 0 -8 5 -5 10 9 14 21 13 23 -2 3 -37 12 -52 42 -71 19 -12
31 -16 26 -9 -13 22 4 13 34 -18 17 -17 35 -28 40 -25 6 3 10 2 10 -4 0 -6 10
-15 21 -22 17 -9 20 -8 13 3 -4 7 9 -2 30 -20 30 -26 41 -31 47 -20 7 10 9 10
9 0 0 -7 4 -11 9 -8 5 3 11 -3 14 -14 3 -11 11 -20 19 -20 11 0 13 -46 11
-247 -2 -169 0 -249 8 -254 7 -4 5 -8 -6 -12 -9 -4 -14 -3 -11 1 2 4 -23 22
-56 41 -33 18 -58 29 -54 23 3 -6 1 -14 -5 -18 -7 -4 -9 -3 -6 3 8 12 -13 41
-32 45 -8 2 -23 11 -34 21 -10 11 -27 17 -38 14 -12 -3 -17 -1 -12 6 4 6 0 8
-10 4 -12 -4 -15 -1 -11 11 5 15 4 15 -9 -1 -13 -16 -15 -16 -21 -2 -3 9 -11
13 -17 9 -8 -4 -9 -3 -5 5 6 9 11 9 24 -1 11 -9 14 -10 8 -1 -9 16 -127 86
-143 86 -7 0 -13 4 -13 8 0 11 -56 40 -69 37 -5 -2 -10 2 -11 7 -3 20 -44 34
-59 22 -12 -10 -13 -9 -6 2 6 11 4 13 -7 8 -16 -6 -17 4 -4 34 4 9 6 122 4
252 l-3 236 33 -20 c19 -10 38 -16 44 -13z m-87 -25 c3 -5 2 -12 -3 -15 -5 -3
-9 1 -9 9 0 17 3 19 12 6z m435 -142 c0 -5 4 -8 9 -4 5 3 12 2 15 -3 2 -4 -6
-8 -18 -8 -12 0 -23 6 -23 13 0 7 4 13 9 13 4 0 8 -5 8 -11z m171 -92 c-13
-13 -26 -3 -16 12 3 6 11 8 17 5 6 -4 6 -10 -1 -17z m-581 -303 c0 -8 -5 -12
-10 -9 -6 4 -8 11 -5 16 9 14 15 11 15 -7z m115 -12 c-3 -3 -11 0 -18 7 -9 10
-8 11 6 5 10 -3 15 -9 12 -12z m-30 -60 c-3 -3 -11 0 -18 7 -9 10 -8 11 6 5
10 -3 15 -9 12 -12z m35 4 c0 -3 -4 -8 -10 -11 -5 -3 -10 -1 -10 4 0 6 5 11
10 11 6 0 10 -2 10 -4z m125 -16 c3 -6 -1 -7 -9 -4 -18 7 -21 14 -7 14 6 0 13
-4 16 -10z m-14 -63 c-10 -9 -11 -8 -5 6 3 10 9 15 12 12 3 -3 0 -11 -7 -18z
m366 -19 c-3 -8 -6 -5 -6 6 -1 11 2 17 5 13 3 -3 4 -12 1 -19z m-272 -10 c5 4
5 2 2 -5 -4 -6 -16 -9 -27 -6 -11 3 -17 9 -14 15 3 5 11 5 18 -1 7 -6 17 -7
21 -3z m169 -36 c3 -5 -1 -9 -9 -9 -8 0 -12 4 -9 9 3 4 7 8 9 8 2 0 6 -4 9 -8z
m-85 -16 c9 -11 9 -16 0 -22 -8 -4 -9 -3 -5 4 4 7 2 12 -3 12 -6 0 -11 5 -11
10 0 14 5 13 19 -4z m140 -20 c11 -14 6 -15 -27 -7 -4 1 8 21 12 21 2 0 9 -6
15 -14z m53 -105 c11 -14 11 -14 -4 -3 -9 7 -18 9 -20 3 -2 -6 -10 -4 -21 3
-16 12 -15 14 8 14 13 0 30 -8 37 -17z"/>
<path d="M17620 11439 c0 -5 5 -7 10 -4 6 3 10 8 10 11 0 2 -4 4 -10 4 -5 0
-10 -5 -10 -11z"/>
<path d="M18540 10850 c0 -5 5 -10 11 -10 5 0 7 5 4 10 -3 6 -8 10 -11 10 -2
0 -4 -4 -4 -10z"/>
<path d="M19767 10608 c-136 -78 -247 -145 -247 -148 1 -3 93 -58 207 -123
l206 -119 46 25 46 26 3 240 c1 133 -1 241 -5 241 -5 0 -120 -64 -256 -142z"/>
<path d="M24150 9178 l0 -73 63 -35 62 -36 3 -80 3 -80 59 -33 60 -32 0 -87 0
-87 60 -33 59 -32 3 -76 3 -76 208 -122 c114 -66 224 -131 244 -143 l37 -22
-37 -21 -37 -22 0 -153 0 -153 192 -111 193 -111 260 0 260 1 185 108 185 107
3 157 3 158 -31 17 c-16 9 -30 19 -30 22 0 7 68 49 287 176 l198 114 5 77 5
77 54 32 55 33 0 83 1 82 60 37 60 36 3 79 3 80 60 33 c33 18 63 39 65 46 3 6
4 39 2 73 l-3 60 -225 -130 c-124 -71 -302 -174 -396 -229 l-170 -99 -641 0
-640 0 -374 216 c-206 118 -384 222 -396 230 l-23 14 0 -72z"/>
<path d="M24850 7697 c0 -62 1 -65 30 -77 16 -7 32 -20 34 -29 5 -14 24 -169
86 -671 16 -130 23 -168 37 -178 10 -7 84 -51 164 -97 l147 -85 236 0 236 0
164 95 163 95 22 187 c25 213 68 556 78 621 4 34 12 46 34 58 27 14 29 18 29
80 l0 66 -22 -14 c-13 -8 -106 -63 -208 -121 l-186 -107 -313 0 -312 0 -187
108 c-103 60 -197 114 -209 121 -23 12 -23 11 -23 -52z"/>
</g>
</svg>
